<?xml version="1.0" encoding="utf-8"?>
<!-- Generator: Adobe Illustrator 16.0.0, SVG Export Plug-In . SVG Version: 6.00 Build 0)  -->
<!DOCTYPE svg PUBLIC "-//W3C//DTD SVG 1.1//EN" "http://www.w3.org/Graphics/SVG/1.1/DTD/svg11.dtd">
<svg version="1.1" id="Capa_1" xmlns="http://www.w3.org/2000/svg" xmlns:xlink="http://www.w3.org/1999/xlink" x="0px" y="0px"
	 width="30px" height="30px" viewBox="0 0 30 30" enable-background="new 0 0 30 30" xml:space="preserve">
<g>
	<g>
		<g fill="000">
			<path stroke="#FFFFFF" d="M29.496,13.657L24.949,9.11V3.858c0-0.95-0.77-1.719-1.721-1.719c-0.948,0-1.718,0.77-1.718,1.719
				v1.813l-3.386-3.385c-1.674-1.673-4.583-1.67-6.253,0.003L0.503,13.657c-0.671,0.672-0.671,1.76,0,2.431
				c0.671,0.673,1.762,0.673,2.433,0L14.303,4.72c0.371-0.369,1.023-0.369,1.392-0.001l11.369,11.369
				c0.336,0.337,0.775,0.504,1.215,0.504c0.441,0,0.881-0.168,1.217-0.504C30.168,15.417,30.168,14.329,29.496,13.657z"/>
			<path stroke="#FFFFFF" d="M15.598,7.983c-0.331-0.33-0.866-0.33-1.195,0l-10,9.997c-0.158,0.158-0.248,0.373-0.248,0.598v7.291
				c0,1.711,1.387,3.099,3.098,3.099h4.951v-7.667h5.589v7.667h4.951c1.711,0,3.099-1.388,3.099-3.099v-7.291
				c0-0.225-0.09-0.439-0.248-0.598L15.598,7.983z"/>
		</g>
	</g>
</g>
</svg>
